<svg xmlns="http://www.w3.org/2000/svg" xmlns:xlink="http://www.w3.org/1999/xlink" width="24" zoomAndPan="magnify" viewBox="0 0 375 374.999991" height="24" preserveAspectRatio="xMidYMid meet" version="1.0"><defs><clipPath id="83c9b41423"><path d="M 123 56.25 L 252 56.25 L 252 193 L 123 193 Z M 123 56.25 " clip-rule="nonzero"/></clipPath><clipPath id="e3f31791e2"><path d="M 68 193 L 307 193 L 307 318.75 L 68 318.75 Z M 68 193 " clip-rule="nonzero"/></clipPath></defs><g clip-path="url(#83c9b41423)"><path fill="#ffffff" d="M 187.5 192.410156 C 222.640625 192.410156 251.222656 155.117188 251.222656 119.980469 C 251.222656 84.84375 222.640625 56.25 187.5 56.25 C 152.359375 56.25 123.773438 84.84375 123.773438 119.980469 C 123.78125 155.113281 152.363281 192.410156 187.5 192.410156 Z M 187.5 192.410156 " fill-opacity="1" fill-rule="nonzero"/></g><g clip-path="url(#e3f31791e2)"><path fill="#ffffff" d="M 235.339844 193.066406 C 222.976562 202.484375 207.558594 208.085938 190.855469 208.085938 L 184.144531 208.085938 C 167.4375 208.085938 152.015625 202.480469 139.65625 193.066406 C 99.296875 199.589844 68.476562 234.570312 68.476562 276.769531 C 68.476562 299.953125 121.765625 318.75 187.5 318.75 C 253.234375 318.75 306.523438 299.953125 306.523438 276.769531 C 306.523438 234.570312 275.699219 199.589844 235.339844 193.066406 Z M 235.339844 193.066406 " fill-opacity="1" fill-rule="nonzero"/></g></svg>
